<svg width="46" height="36" viewBox="0 0 46 36" fill="none" xmlns="http://www.w3.org/2000/svg">
<path d="M39.1067 0.377197H7.16956C3.64756 0.377197 0.792419 3.23234 0.792419 6.75434V29.4172C0.792419 32.9392 3.64756 35.7943 7.16956 35.7943H39.1067C42.6287 35.7943 45.4839 32.9392 45.4839 29.4172V6.75434C45.4839 3.23234 42.6287 0.377197 39.1067 0.377197Z" fill="url(#paint0_linear_17_531)"/>
<path style="mix-blend-mode:multiply" d="M45.4839 11.5372V10.7143H37.2381V0.428624H36.4153V10.7143H29.8496C29.4303 9.32918 28.6079 8.10028 27.4874 7.18434C26.3669 6.2684 24.999 5.70691 23.5581 5.57148V0.377197H22.7353V5.52005C21.1975 5.55038 19.7081 6.0632 18.4776 6.98606C17.2472 7.90891 16.3378 9.19512 15.8781 10.6629H9.80956V0.377197H8.98671V10.6629H0.792419V11.4858H9.03813V23.0743H0.792419V23.8801H9.03813V35.7258H9.80956V23.9315H15.6553C16.0221 25.5307 16.9133 26.9613 18.1869 27.9957C19.4605 29.0301 21.0434 29.6089 22.6838 29.6401V35.7772H23.5238V29.5886C25.058 29.4418 26.5073 28.8166 27.6669 27.8016C28.8266 26.7865 29.6381 25.4327 29.9867 23.9315H36.4496V35.7772H37.2381V23.9315H45.4153V23.1258H40.6667V11.5372H45.4839ZM15.5867 23.1258H9.80956V11.5372H15.6381C15.5568 11.9901 15.511 12.4486 15.501 12.9086C15.5034 14.627 16.1102 16.2898 17.2153 17.6058C16.1076 18.9202 15.5004 20.584 15.501 22.3029C15.501 22.5429 15.5696 22.8515 15.5867 23.1258ZM22.8724 28.8343C21.6009 28.8408 20.3552 28.4751 19.2891 27.7821C18.2229 27.0891 17.3829 26.0993 16.8725 24.9346C16.3622 23.77 16.2039 22.4814 16.4171 21.2278C16.6303 19.9743 17.2057 18.8105 18.0724 17.8801L18.3296 17.6058L18.0724 17.4001C17.203 16.4668 16.625 15.3 16.4095 14.0429C16.1939 12.7858 16.3502 11.4931 16.859 10.3235C17.3679 9.15399 18.2072 8.1585 19.274 7.4593C20.3407 6.7601 21.5884 6.38763 22.8638 6.38763C24.1393 6.38763 25.387 6.7601 26.4537 7.4593C27.5205 8.1585 28.3598 9.15399 28.8687 10.3235C29.3775 11.4931 29.5338 12.7858 29.3182 14.0429C29.1027 15.3 28.5247 16.4668 27.6553 17.4001L27.3981 17.6743L27.6553 17.9486C28.521 18.878 29.0961 20.0402 29.3098 21.2922C29.5236 22.5441 29.3668 23.8313 28.8585 24.9953C28.3503 26.1593 27.5129 27.1493 26.4494 27.8436C25.3858 28.5378 24.1425 28.906 22.8724 28.9029V28.8343ZM39.7924 23.1258H30.141C30.141 22.8515 30.141 22.5772 30.141 22.3029C30.1416 20.584 29.5343 18.9202 28.4267 17.6058C29.5318 16.2898 30.1386 14.627 30.141 12.9086C30.131 12.4486 30.0852 11.9901 30.0038 11.5372H39.7067L39.7924 23.1258Z" fill="url(#paint1_linear_17_531)"/>
<defs>
<linearGradient id="paint0_linear_17_531" x1="23.1467" y1="-9.17137" x2="23.1467" y2="80.1943" gradientUnits="userSpaceOnUse">
<stop stop-color="#FFCA3F"/>
<stop offset="0.1" stop-color="#CA7C22"/>
<stop offset="0.19" stop-color="#FDDB7A"/>
<stop offset="0.42" stop-color="#FFAD45"/>
<stop offset="0.55" stop-color="#A95F0D"/>
<stop offset="0.66" stop-color="#FFAD45"/>
<stop offset="0.79" stop-color="#FFFF9B"/>
<stop offset="0.87" stop-color="#FFED7C"/>
<stop offset="1" stop-color="#FFCA3F"/>
</linearGradient>
<linearGradient id="paint1_linear_17_531" x1="1421.09" y1="491.375" x2="1421.09" y2="2801.58" gradientUnits="userSpaceOnUse">
<stop stop-color="#FFCA3F"/>
<stop offset="0.1" stop-color="#CA7C22"/>
<stop offset="0.19" stop-color="#FDDB7A"/>
<stop offset="0.42" stop-color="#FFAD45"/>
<stop offset="0.55" stop-color="#A95F0D"/>
<stop offset="0.66" stop-color="#FFAD45"/>
<stop offset="0.79" stop-color="#FFFF9B"/>
<stop offset="0.87" stop-color="#FFED7C"/>
<stop offset="1" stop-color="#FFCA3F"/>
</linearGradient>
</defs>
</svg>
