<svg width="121" height="46" viewBox="0 0 121 46" fill="none" xmlns="http://www.w3.org/2000/svg">
<path d="M31.3182 29.5999V16.3291H35.4015C36.5682 16.3291 37.6103 16.5934 38.5278 17.122C39.4514 17.6446 40.1715 18.392 40.688 19.3642C41.2045 20.3304 41.4627 21.4302 41.4627 22.6637V23.2744C41.4627 24.5079 41.2075 25.6047 40.6971 26.5648C40.1928 27.5248 39.4788 28.2692 38.5552 28.7978C37.6316 29.3265 36.5895 29.5938 35.4289 29.5999H31.3182ZM34.0526 18.5439V27.4033H35.3742C36.4436 27.4033 37.2609 27.0539 37.826 26.3551C38.3911 25.6563 38.6797 24.6568 38.6919 23.3564V22.6546C38.6919 21.3056 38.4124 20.2848 37.8534 19.5921C37.2943 18.8933 36.4771 18.5439 35.4015 18.5439H34.0526ZM46.0656 29.5999H43.4224V19.7379H46.0656V29.5999ZM43.2674 17.1859C43.2674 16.7909 43.3981 16.4658 43.6593 16.2106C43.9267 15.9554 44.2882 15.8278 44.744 15.8278C45.1936 15.8278 45.5521 15.9554 45.8195 16.2106C46.0869 16.4658 46.2205 16.7909 46.2205 17.1859C46.2205 17.5869 46.0838 17.915 45.8104 18.1702C45.543 18.4254 45.1876 18.553 44.744 18.553C44.3004 18.553 43.9419 18.4254 43.6685 18.1702C43.4011 17.915 43.2674 17.5869 43.2674 17.1859ZM47.8612 24.596C47.8612 23.083 48.2197 21.8647 48.9367 20.9411C49.6598 20.0174 50.632 19.5556 51.8534 19.5556C52.935 19.5556 53.7765 19.9263 54.3781 20.6676L54.4875 19.7379H56.8755V29.2718C56.8755 30.1346 56.678 30.8851 56.283 31.5231C55.8942 32.1611 55.3442 32.6472 54.6333 32.9814C53.9224 33.3156 53.0899 33.4827 52.1359 33.4827C51.4128 33.4827 50.708 33.3369 50.0213 33.0452C49.3347 32.7596 48.8152 32.389 48.4627 31.9332L49.6294 30.3291C50.2856 31.0643 51.0817 31.4319 52.0174 31.4319C52.7162 31.4319 53.26 31.2436 53.6489 30.8668C54.0378 30.4962 54.2323 29.9675 54.2323 29.2809V28.7523C53.6246 29.4389 52.8256 29.7822 51.8351 29.7822C50.6502 29.7822 49.6902 29.3204 48.9549 28.3968C48.2257 27.4671 47.8612 26.2366 47.8612 24.7054V24.596ZM50.4953 24.7874C50.4953 25.6806 50.6745 26.3825 51.033 26.8929C51.3915 27.3972 51.8837 27.6494 52.5096 27.6494C53.3117 27.6494 53.8859 27.3486 54.2323 26.747V22.5999C53.8798 21.9984 53.3117 21.6976 52.5278 21.6976C51.8959 21.6976 51.3976 21.9558 51.033 22.4723C50.6745 22.9888 50.4953 23.7605 50.4953 24.7874ZM61.688 29.5999H59.0448V19.7379H61.688V29.5999ZM58.8898 17.1859C58.8898 16.7909 59.0205 16.4658 59.2817 16.2106C59.5491 15.9554 59.9106 15.8278 60.3664 15.8278C60.816 15.8278 61.1745 15.9554 61.4419 16.2106C61.7093 16.4658 61.8429 16.7909 61.8429 17.1859C61.8429 17.5869 61.7062 17.915 61.4328 18.1702C61.1654 18.4254 60.81 18.553 60.3664 18.553C59.9228 18.553 59.5643 18.4254 59.2909 18.1702C59.0235 17.915 58.8898 17.5869 58.8898 17.1859ZM64.0031 28.3056C64.0031 27.8864 64.1429 27.5461 64.4224 27.2848C64.708 27.0235 65.0634 26.8929 65.4888 26.8929C65.9202 26.8929 66.2757 27.0235 66.5552 27.2848C66.8408 27.5461 66.9836 27.8864 66.9836 28.3056C66.9836 28.7188 66.8438 29.0561 66.5643 29.3174C66.2848 29.5726 65.9263 29.7002 65.4888 29.7002C65.0573 29.7002 64.7019 29.5726 64.4224 29.3174C64.1429 29.0561 64.0031 28.7188 64.0031 28.3056ZM79.8078 25.7718L81.5942 16.3291H84.3195L81.3755 29.5999H78.6229L76.4627 20.7223L74.3026 29.5999H71.55L68.606 16.3291H71.3312L73.1268 25.7536L75.3143 16.3291H77.6294L79.8078 25.7718ZM91.0369 29.5999C90.9154 29.3629 90.8273 29.0682 90.7726 28.7158C90.1346 29.4267 89.3052 29.7822 88.2843 29.7822C87.3182 29.7822 86.5161 29.5027 85.8781 28.9437C85.2462 28.3846 84.9302 27.6798 84.9302 26.8291C84.9302 25.7839 85.316 24.9819 86.0877 24.4228C86.8655 23.8638 87.9866 23.5813 89.451 23.5752H90.6633V23.0101C90.6633 22.5543 90.5448 22.1898 90.3078 21.9163C90.0769 21.6429 89.7093 21.5062 89.2049 21.5062C88.7613 21.5062 88.4119 21.6125 88.1567 21.8252C87.9076 22.0378 87.783 22.3295 87.783 22.7002H85.1489C85.1489 22.129 85.3251 21.6003 85.6776 21.1142C86.03 20.6281 86.5283 20.2484 87.1724 19.9749C87.8165 19.6954 88.5396 19.5556 89.3416 19.5556C90.5569 19.5556 91.52 19.8625 92.231 20.4762C92.948 21.0839 93.3065 21.9406 93.3065 23.0465V27.3213C93.3126 28.257 93.4432 28.9649 93.6984 29.445V29.5999H91.0369ZM88.8586 27.7679C89.2475 27.7679 89.606 27.6828 89.9341 27.5127C90.2622 27.3365 90.5053 27.1025 90.6633 26.8109V25.1155H89.6789C88.3603 25.1155 87.6585 25.5713 87.5734 26.4827L87.5643 26.6377C87.5643 26.9658 87.6797 27.2362 87.9106 27.4489C88.1416 27.6615 88.4575 27.7679 88.8586 27.7679ZM98.1099 29.5999H95.4666V15.5999H98.1099V29.5999ZM103.068 29.5999H100.425V15.5999H103.068V29.5999ZM109.786 29.7822C108.339 29.7822 107.161 29.3386 106.249 28.4515C105.344 27.5643 104.891 26.3825 104.891 24.9059V24.6507C104.891 23.6602 105.083 22.7761 105.465 21.9984C105.848 21.2145 106.389 20.6129 107.088 20.1937C107.793 19.7683 108.595 19.5556 109.494 19.5556C110.843 19.5556 111.903 19.981 112.675 20.8317C113.453 21.6824 113.842 22.8885 113.842 24.4502V25.5257H107.562C107.647 26.1698 107.902 26.6863 108.327 27.0752C108.759 27.4641 109.303 27.6585 109.959 27.6585C110.974 27.6585 111.767 27.2909 112.338 26.5556L113.632 28.0049C113.237 28.5639 112.702 29.0014 112.028 29.3174C111.353 29.6273 110.606 29.7822 109.786 29.7822ZM109.485 21.6885C108.962 21.6885 108.537 21.8647 108.209 22.2171C107.887 22.5695 107.68 23.0739 107.589 23.7301H111.253V23.5205C111.241 22.9372 111.083 22.4875 110.779 22.1715C110.475 21.8495 110.044 21.6885 109.485 21.6885ZM118.499 17.3135V19.7379H120.185V21.6702H118.499V26.5921C118.499 26.9567 118.569 27.218 118.709 27.376C118.849 27.5339 119.116 27.6129 119.511 27.6129C119.803 27.6129 120.061 27.5917 120.286 27.5491V29.5452C119.769 29.7032 119.237 29.7822 118.691 29.7822C116.843 29.7822 115.902 28.8495 115.865 26.984V21.6702H114.425V19.7379H115.865V17.3135H118.499Z" fill="url(#paint0_linear_0_9)"/>
<path d="M24.7382 8.01036C24.7382 8.01036 23.0297 12.1332 21.1351 13.0658C19.7455 13.7421 18.0591 13.2906 16.8132 13.1782C16.6824 13.1597 16.5497 13.1413 16.417 13.1266C15.8705 13.0661 15.321 13.036 14.7712 13.0363C11.9532 13.0289 9.48174 13.803 8.1179 14.9659C5.55243 13.9578 3.90662 12.3857 3.90662 10.633C3.90662 8.55221 6.21407 6.74052 9.61996 5.80243C10.6004 5.53753 11.6008 5.35262 12.6112 5.24952C12.6831 5.24952 12.7549 5.23294 12.8287 5.22741C13.5676 5.14989 14.3101 5.11114 15.0532 5.1113C15.6964 5.1113 16.288 5.14263 16.8132 5.18502C17.6046 5.25288 18.392 5.36115 19.1723 5.50939C21.5609 5.99042 23.531 6.88059 24.7382 8.01036Z" fill="url(#paint1_linear_0_9)"/>
<path d="M19.0065 37.7401C18.5503 38.9031 17.7423 39.8947 16.6954 40.5765H16.6659V40.5894C14.9626 40.9596 13.2245 41.1449 11.4815 41.1423C10.8309 41.1423 10.1914 41.1165 9.56105 41.0686C8.66922 40.9976 7.78159 40.8814 6.90158 40.7202L6.73202 40.6889L6.54772 40.652C6.25652 40.5968 5.97085 40.5359 5.68887 40.4677C4.29756 40.1581 2.94416 39.6977 1.65267 39.0947C1.37253 38.9638 1.11267 38.8256 0.865703 38.6837L0.266724 38.3372L0.948639 35.6759L0.97997 35.5543C0.97997 35.5377 0.97997 35.5193 0.992871 35.5045L1.05369 35.2631C1.30519 34.3143 1.86777 33.4774 2.65135 32.8862C3.43493 32.2951 4.3942 31.984 5.37556 32.0028C5.92731 32.0351 6.47281 32.1367 6.99926 32.305C9.00829 32.8933 11.093 33.1827 13.1863 33.1639C15.0057 33.1746 16.8194 32.9605 18.5863 32.5262C19.4433 34.2255 19.6479 36.0629 19.0065 37.7401Z" fill="url(#paint2_linear_0_9)"/>
<path d="M16.6956 40.5764L16.6658 40.5968V40.5838L16.6956 40.5764Z" fill="black"/>
<path d="M13.2599 0.533234C10.5875 0.533234 9.94802 2.09611 9.85034 4.15107H9.83191V40.9524V45.3332H13.2599C16.2622 45.3332 16.6953 43.3723 16.6953 40.9524V0.533234H13.2599Z" fill="url(#paint3_linear_0_9)"/>
<path d="M26.2531 29.8723C26.2531 35.1433 22.5321 39.2717 16.6989 40.5765C17.7459 39.8948 18.5539 38.9032 19.0101 37.7401C20.4698 33.9159 17.5467 29.2512 12.4784 27.3142C12.2941 27.2442 12.1098 27.1778 11.9255 27.1151H11.9016C11.6362 27.0156 11.3487 26.9161 11.0538 26.8147C6.26195 25.2021 0.742126 22.5224 0.742126 16.0994C0.742126 11.0533 4.19409 7.15898 9.80607 5.78778C8.52886 6.7996 7.69213 8.08971 7.4765 9.57702C7.03234 12.6493 9.36006 15.6866 13.083 17.4338C13.083 17.4338 13.083 17.4338 13.094 17.4338C14.2594 17.999 15.4528 18.5046 16.6695 18.9487C23.378 21.317 26.2531 24.5865 26.2531 29.8723Z" fill="url(#paint4_linear_0_9)"/>
<defs>
<linearGradient id="paint0_linear_0_9" x1="75.4" y1="13.5999" x2="74.9333" y2="35.9999" gradientUnits="userSpaceOnUse">
<stop stop-color="#74D1E3"/>
<stop offset="1" stop-color="#245BA8"/>
</linearGradient>
<linearGradient id="paint1_linear_0_9" x1="24.2111" y1="11.7259" x2="6.51448" y2="9.21016" gradientUnits="userSpaceOnUse">
<stop stop-color="#66F2D1"/>
<stop offset="1" stop-color="#154398"/>
</linearGradient>
<linearGradient id="paint2_linear_0_9" x1="1.45178" y1="33.3445" x2="18.3854" y2="38.3796" gradientUnits="userSpaceOnUse">
<stop stop-color="#66F2D1"/>
<stop offset="0.13" stop-color="#5AD4C2"/>
<stop offset="0.44" stop-color="#4093A1"/>
<stop offset="0.69" stop-color="#2D6388"/>
<stop offset="0.89" stop-color="#21467A"/>
<stop offset="1" stop-color="#1D3B74"/>
</linearGradient>
<linearGradient id="paint3_linear_0_9" x1="13.0535" y1="-1.53279" x2="13.3447" y2="32.9242" gradientUnits="userSpaceOnUse">
<stop stop-color="#99FFE7"/>
<stop offset="0.15" stop-color="#95FAE6"/>
<stop offset="0.32" stop-color="#8AECE2"/>
<stop offset="0.45" stop-color="#7EDCDE"/>
<stop offset="0.52" stop-color="#70C7D1"/>
<stop offset="0.66" stop-color="#4D92AE"/>
<stop offset="0.67" stop-color="#498DAB"/>
<stop offset="0.95" stop-color="#6EC7DB"/>
<stop offset="1" stop-color="#74D1E3"/>
</linearGradient>
<linearGradient id="paint4_linear_0_9" x1="0.732911" y1="23.1803" x2="26.2494" y2="23.1803" gradientUnits="userSpaceOnUse">
<stop stop-color="#64C2ED"/>
<stop offset="1" stop-color="#154398"/>
</linearGradient>
</defs>
</svg>
